<svg width="17" height="17" viewBox="0 0 17 17" fill="none" xmlns="http://www.w3.org/2000/svg">
<path d="M3.168 17V0.199999H9.768C11.928 0.199999 13.632 0.679999 14.88 1.64C16.128 2.584 16.752 3.968 16.752 5.792C16.752 7.616 16.128 9.008 14.88 9.968C13.632 10.928 11.928 11.408 9.768 11.408H4.512L5.592 10.28V17H3.168ZM5.592 10.52L4.512 9.416H9.768C11.24 9.416 12.368 9.104 13.152 8.48C13.936 7.856 14.328 6.968 14.328 5.816C14.328 4.68 13.936 3.808 13.152 3.2C12.368 2.592 11.24 2.288 9.768 2.288H4.512L5.592 1.088V10.52ZM0.72 14.192V12.824H10.92V14.192H0.72Z" fill="#434B53"/>
</svg>
